<?xml version="1.0" encoding="UTF-8"?>
<svg id="logo_horizontal" xmlns="http://www.w3.org/2000/svg" version="1.1" viewBox="0 0 1350 800">
  <!-- Generator: Adobe Illustrator 30.3.0, SVG Export Plug-In . SVG Version: 2.1.3 Build 182)  -->
  <g>
    <path d="M231.07,396.05l-74.47-74.47c-1.25-1.25-3.28-1.25-4.53,0l-74.48,74.47c-.85.85-1.13,2.07-26.05,26.95v4.89c0,19.45,15.77,35.22,35.22,35.22h31.35c.33,0,.63.2.76.5l16.82,38.14,13.12,29.73,4.62,10.47c.3.67,1.24.67,1.54,0l4.44-10.07,12.86-29.15,17.27-39.12c.13-.31.43-.5.76-.5,28.88,0,53.48-18.31,62.81-43.97-17.54-17.77-18.18-19.23-22.04-23.09ZM135.36,368.23h16.53v15.77h-16.53v-15.77ZM135.36,405.12v-15.78h16.53v15.78h-16.53ZM173.77,405.12h-16.53v-15.78h16.53v15.78ZM173.77,384h-16.53v-15.77h16.53v15.77Z"/>
    <path d="M257.12,374.8v13.84l-100.53-100.54c-1.25-1.25-3.28-1.25-4.53,0l-29.17,29.17c-.67.67-1.82.2-1.82-.76v-7.88c0-1.18-.96-2.14-2.14-2.14h-24.4c-1.18,0-2.14.96-2.14,2.14v38.7c0,.28-.11.55-.31.76l-40.55,40.55v-95.88c0-19.45,15.77-35.22,35.22-35.22h53.1c64.76,0,117.26,52.5,117.26,117.26Z"/>
  </g>
  <g>
    <path d="M347.12,302.53h38.59c54.63,0,75.89,23.12,75.89,67.49s-21.26,67.49-75.89,67.49h-38.59v-134.99ZM386.83,411.22c33.93,0,44.93-13.24,44.93-41.39s-11-41.39-45.12-41.39h-10.07v82.78h10.25Z"/>
    <path d="M480.6,384.19c0-32.81,22.37-55.37,54.63-55.37,35.24,0,55.93,24.61,52.58,61.9h-78.87c.56,17.34,11,27.41,27.97,27.41,12.12,0,20.14-4.48,24.05-13.24l25.92,3.17c-7.64,20.69-24.98,31.51-50.71,31.51-33.56,0-55.56-22-55.56-55.37ZM561.89,372.07c-1.12-14.17-10.81-23.31-25.92-23.31s-24.8,8.2-26.47,23.31h52.39Z"/>
    <path d="M606.44,384.19c0-35.8,20.7-55.37,47.17-55.37,15.1,0,28.71,7.46,34.12,20.14v-18.09h28.34v106.46h-28.34v-17.34c-5.22,12.3-19.02,19.95-33.93,19.95-26.48,0-47.36-19.95-47.36-55.75ZM688.66,384.19c0-19.95-11.19-31.88-27.03-31.88s-26.85,11.75-26.85,31.88,11.19,32.07,27.03,32.07,26.85-11.93,26.85-32.07Z"/>
    <path d="M805.92,411.41h-69.92v-23.87l67.12-85.02h32.25v84.83h16.59v24.05h-16.59v26.1h-29.46v-26.1ZM805.92,387.36v-51.27l-41.58,51.27h41.58Z"/>
    <path d="M866.88,384.19c0-32.81,22.37-55.37,54.63-55.37,35.24,0,55.93,24.61,52.58,61.9h-78.87c.56,17.34,11,27.41,27.97,27.41,12.12,0,20.14-4.48,24.05-13.24l25.92,3.17c-7.64,20.69-24.98,31.51-50.71,31.51-33.56,0-55.56-22-55.56-55.37ZM948.17,372.07c-1.12-14.17-10.81-23.31-25.92-23.31s-24.8,8.2-26.47,23.31h52.39Z"/>
    <path d="M980.78,330.87h30.77l28.34,74.77,28.15-74.77h31.14l-44.93,106.83h-28.9l-44.56-106.83Z"/>
    <path d="M1104.57,384.19c0-32.81,22.37-55.37,54.63-55.37,35.24,0,55.93,24.61,52.58,61.9h-78.87c.56,17.34,11,27.41,27.97,27.41,12.12,0,20.14-4.48,24.05-13.24l25.92,3.17c-7.64,20.69-24.98,31.51-50.71,31.51-33.56,0-55.56-22-55.56-55.37ZM1185.86,372.07c-1.12-14.17-10.81-23.31-25.92-23.31s-24.8,8.2-26.47,23.31h52.39Z"/>
    <path d="M1234.14,330.87h28.34v16.03c3.73-9.88,14.73-19.76,35.98-17.34l-2.79,26.85c-21.26-3.91-33.19,5.97-33.19,30.76v50.34h-28.34v-106.65Z"/>
  </g>
</svg>